<svg width="931" height="244" viewBox="0 0 931 244" fill="none" xmlns="http://www.w3.org/2000/svg">
<path d="M258.336 242.306V67.7778H307.128V242.306H258.336ZM257.999 38.9722V0.677769H307.465V38.9722H257.999Z" fill="#F5F5F5"/>
<path d="M432.939 244C402.879 244 379.436 236.544 362.611 221.633C345.786 206.496 337.374 184.356 337.374 155.211C337.374 125.841 345.786 103.7 362.611 88.7889C379.436 73.6519 402.879 66.0833 432.939 66.0833H495.192C525.252 66.0833 548.695 73.6519 565.52 88.7889C582.345 103.7 590.757 125.841 590.757 155.211C590.757 184.356 582.345 206.496 565.52 221.633C548.695 236.544 525.252 244 495.192 244H432.939ZM432.939 205.028H495.192C509.773 205.028 520.878 200.961 528.505 192.828C536.357 184.694 540.283 172.156 540.283 155.211C540.283 138.041 536.357 125.389 528.505 117.256C520.878 109.122 509.773 105.056 495.192 105.056H432.939C418.358 105.056 407.141 109.122 399.289 117.256C391.662 125.389 387.848 138.041 387.848 155.211C387.848 172.156 391.662 184.694 399.289 192.828C407.141 200.961 418.358 205.028 432.939 205.028Z" fill="#F5F5F5"/>
<path d="M621.124 242.306V0H669.916V242.306H621.124Z" fill="#F5F5F5"/>
<path d="M752.992 242.306C734.821 242.306 720.912 237.674 711.266 228.411C701.62 219.148 696.797 205.931 696.797 188.761C696.797 171.817 701.62 158.713 711.266 149.45C720.912 140.187 734.821 135.556 752.992 135.556H882.208V127.422C882.208 113.641 875.478 106.75 862.018 106.75H719.342V67.7778H874.805C895.219 67.7778 909.688 72.5222 918.213 82.0111C926.738 91.2741 931 104.378 931 121.322V242.306H752.992ZM761.741 203.333H882.208V174.528H761.741C757.479 174.528 754.114 175.883 751.646 178.594C749.403 181.08 748.281 184.469 748.281 188.761C748.281 193.054 749.403 196.556 751.646 199.267C754.114 201.978 757.479 203.333 761.741 203.333Z" fill="#F5F5F5"/>
<path d="M111.388 241.992C111.219 245.119 103.092 224.442 99.2413 214.12C97.4452 209.301 115.642 210.265 120.649 209.088C138.465 204.886 175.129 189.7 178.822 135.571C180.607 109.402 151.262 98.3298 151.52 86.0133C151.891 68.4296 176.509 68.8331 176.509 68.8331L219.92 68.4296C225.937 68.5753 229.9 74.7167 227.565 80.253L161.511 236.758C160.176 239.918 157.077 241.969 153.642 241.969H111.388V241.992Z" fill="#F5F5F5"/>
<path d="M51.1944 81.7211L119.246 231.043C121.615 236.243 117.483 241.992 111.377 241.992H78.7428C75.3076 241.992 72.2093 240.087 70.8734 237.173L3.91082 81.7211" fill="#F5F5F5"/>
<path d="M74.2187 237.655L0.677755 81.3176C-1.69091 75.9607 2.44022 70.0322 8.54712 70.0322H41.1809C44.616 70.0322 47.7143 71.9934 49.0502 75.0081L119.931 235.223" fill="#F5F5F5"/>
</svg>
